<svg xmlns="http://www.w3.org/2000/svg" width="244.599" height="41.532" viewBox="0 0 244.599 41.532">
  <g id="Lancesoft_White_Logo_png" data-name="Lancesoft White Logo png" transform="translate(-249.814 3236.888)">
    <path id="Path_455" data-name="Path 455" d="M5.3-225.7c-.222.222-.3,5.09-.3,20.359,0,18.333.025,20.087.42,20.383.272.247,1.309.371,3.385.42l2.99.074,18.16-14.775C39.96-207.371,49.028-214.734,50.09-215.6c1.161-.914-4.719,5.139-14.132,14.577-8.87,8.895-16.134,16.232-16.134,16.356,0,.1,9.562.148,21.273.124l21.273-.074.469-.593c.445-.544.469-1.235.469-20.136,0-17.295-.049-19.617-.4-20.111L62.542-226H34.055C12.239-226,5.519-225.926,5.3-225.7Z" transform="translate(244.814 -3010.888)" fill="#fff"/>
    <path id="Path_456" data-name="Path 456" d="M530.412-191.383c-3.854.667-6.572,3.681-7.116,7.857a32.4,32.4,0,0,0,.049,7.585c.692,4.793,4.175,7.783,9.117,7.783s8.2-2.57,8.6-6.72l.124-1.433h-4.447l-.173,1.285c-.445,3.385-4.694,4.571-7.19,2-1.359-1.408-1.655-2.841-1.557-7.437.1-4.274.321-5.065,1.9-6.572a2.9,2.9,0,0,1,2.248-.84,5.816,5.816,0,0,1,2.224.2,4.158,4.158,0,0,1,2.347,3.088l.173,1.112h4.4v-.939a7.474,7.474,0,0,0-4.694-6.424A13.806,13.806,0,0,0,530.412-191.383Z" transform="translate(-145.278 -3036.857)" fill="#f4f7fc"/>
    <path id="Path_457" data-name="Path 457" d="M687.692-191.334c-2.644.445-5.09,2.1-5.88,3.928a6.957,6.957,0,0,0,.173,4.892c.865,1.68,3.607,3.385,7.066,4.373a10.424,10.424,0,0,1,4.2,2.1,2.355,2.355,0,0,1,.494,1.606c0,1.754-1.433,2.841-3.755,2.841-2.57,0-4.077-.939-4.6-2.891l-.272-1.062H680.7l.148,1.26c.3,2.446,1.977,4.3,4.966,5.51a16.743,16.743,0,0,0,8.2.074,7.29,7.29,0,0,0,3.83-3.212,6.9,6.9,0,0,0-.346-5.831c-.988-1.482-3.039-2.693-6.72-3.978-4.472-1.557-5.51-2.644-4.447-4.694.667-1.285,2.594-1.878,4.62-1.433a3.713,3.713,0,0,1,2.792,2.644l.173.766h4.472l-.148-1.112c-.469-3.311-3.335-5.584-7.486-5.9A17.33,17.33,0,0,0,687.692-191.334Z" transform="translate(-263.941 -3036.881)" fill="#f4f7fc"/>
    <path id="Path_458" data-name="Path 458" d="M771.032-191.347a8.836,8.836,0,0,0-6.2,5.065c-.618,1.285-.642,1.606-.717,5.954-.074,4.1-.025,4.719.42,6a9.061,9.061,0,0,0,8.919,6.078,9.15,9.15,0,0,0,8.993-6.029c.445-1.087.494-1.8.519-5.46,0-4.768-.272-6.078-1.754-8.079A9.723,9.723,0,0,0,771.032-191.347Zm4.546,3.83a5.238,5.238,0,0,1,2.57,3.508,25.455,25.455,0,0,1,.2,4.818c-.074,3.163-.148,3.78-.618,4.645-1.334,2.52-3.78,3.459-6.127,2.372-2.446-1.112-3.187-3.138-3.064-8.4.1-3.508.123-3.657.865-4.966A4.574,4.574,0,0,1,775.578-187.517Z" transform="translate(-326.725 -3036.77)" fill="#f4f7fc"/>
    <path id="Path_459" data-name="Path 459" d="M279-178.635v11.365h14.824v-3.459h-10.13V-190H279Z" transform="translate(38.511 -3037.993)" fill="#f4f7fc"/>
    <path id="Path_460" data-name="Path 460" d="M350.864-189.408c-.148.371-1.853,5.312-3.8,10.945s-3.632,10.451-3.706,10.673c-.173.4.025.445,2.2.445H347.9l.766-2.471.766-2.471h8.03l.741,2.4.717,2.421,2.4.074,2.4.074-.618-1.68c-.321-.914-2.075-6.028-3.9-11.316l-3.311-9.636-2.372-.074-2.372-.074Zm2.668,13.366a25.521,25.521,0,0,1-2.792-.025c-.049-.025.544-2,1.309-4.373l1.384-4.324,1.408,4.324,1.384,4.324Z" transform="translate(-9.906 -3037.918)" fill="#f4f7fc"/>
    <path id="Path_461" data-name="Path 461" d="M434-178.71v11.365h4.694l.049-7.709.074-7.684,4.571,7.684,4.546,7.709h4.6v-22.73h-4.694v15.392l-4.546-7.634-4.521-7.634-2.4-.074L434-190.1Z" transform="translate(-78.193 -3037.918)" fill="#f4f7fc"/>
    <path id="Path_462" data-name="Path 462" d="M609-178.635v11.365h15.812v-3.459H613.694V-177.4h9.389v-3.459h-9.389v-5.683h10.871V-190H609Z" transform="translate(-209.956 -3037.993)" fill="#f4f7fc"/>
    <path id="Path_463" data-name="Path 463" d="M855-178.635v11.365h4.694v-9.389h9.389v-3.706h-9.389v-6.177h11.118V-190H855Z" transform="translate(-395.177 -3037.993)" fill="#f4f7fc"/>
    <path id="Path_464" data-name="Path 464" d="M925-188.271v1.729h6.424v19.271h4.447v-19.271h6.424V-190H925Z" transform="translate(-447.882 -3037.993)" fill="#f4f7fc"/>
  </g>
</svg>
